<?xml version="1.0" encoding="utf-8"?>
<!-- Generator: Adobe Illustrator 24.1.3, SVG Export Plug-In . SVG Version: 6.00 Build 0)  -->
<svg version="1.1" xmlns="http://www.w3.org/2000/svg" xmlns:xlink="http://www.w3.org/1999/xlink" x="0px" y="0px"
	 viewBox="0 0 662.8 662.8" style="enable-background:new 0 0 662.8 662.8;" xml:space="preserve">
<style type="text/css">
	.st0{fill:#B2FCE4;}
</style>
<g id="Sticker">
	<g>
		<circle class="st0" cx="331.4" cy="331.4" r="187.4"/>
	</g>
</g>
<g id="Loop">
	<g>
		<path d="M438.3,265.5l-34.6-19.8l-35.1-20.1c-23.2-13.3-52.2,3.4-52.2,30.2v4.5c0,2.5,1.3,4.8,3.5,6l16.3,9.3
			c4.5,2.6,10.1-0.7,10.1-5.9v-10.7c0-5.3,5.7-8.6,10.3-6l32,18.4l31.9,18.3c4.6,2.6,4.6,9.3,0,11.9l-31.9,18.3l-32,18.4
			c-4.6,2.6-10.3-0.7-10.3-6l0-5.3c0-26.8-29-43.6-52.2-30.2L259.1,317l-34.6,19.8c-23.3,13.4-23.3,47.1,0,60.5l34.6,19.8l35.1,20.1
			c23.2,13.3,52.2-3.4,52.2-30.2v-4.5c0-2.5-1.3-4.8-3.5-6l-16.3-9.3c-4.5-2.6-10.1,0.7-10.1,5.9v10.7c0,5.3-5.7,8.6-10.3,6
			l-32-18.4l-31.9-18.3c-4.6-2.6-4.6-9.3,0-11.9l31.9-18.3l32-18.4c4.6-2.6,10.3,0.7,10.3,6v5.3c0,26.8,29,43.6,52.2,30.2l35.1-20.1
			l34.6-19.8C461.6,312.6,461.6,278.9,438.3,265.5z"/>
	</g>
</g>
</svg>
